<?xml version="1.0" encoding="utf-8"?>
<!-- Generator: Adobe Illustrator 25.3.1, SVG Export Plug-In . SVG Version: 6.00 Build 0)  -->
<svg version="1.1" id="圖層_1" xmlns="http://www.w3.org/2000/svg" xmlns:xlink="http://www.w3.org/1999/xlink" x="0px" y="0px"
	 viewBox="0 0 1366 768" style="enable-background:new 0 0 1366 768;" xml:space="preserve">
<style type="text/css">
	.st0{fill:url(#SVGID_1_);}
	.st1{fill:url(#SVGID_2_);}
</style>
<linearGradient id="SVGID_1_" gradientUnits="userSpaceOnUse" x1="342.3171" y1="320.3979" x2="705.0692" y2="529.8329">
	<stop  offset="0" style="stop-color:#F3E6D7"/>
	<stop  offset="1" style="stop-color:#CCA375"/>
</linearGradient>
<path class="st0" d="M512.9,137.65c2.03,1.97,4.18,3.82,6.06,5.92c4.75,5.3,10.51,8.23,17.64,9.3c7.79,1.18,14.07,5.07,18.98,11.7
	c11.27,15.21,20.17,31.69,28.24,48.73c4.13,8.72,2.6,17.61,1.87,26.51c-1.69,20.43-4.19,40.71-11.72,60.03
	c-2.4,6.16-1.5,12.18,2.55,17.48c3.98,5.21,4.47,10.63,2.72,16.92c-8.17,29.35-6.86,58.97-1.97,88.64c0.11,0.64,0.41,1.25,0.85,2.55
	c1.99-2.21,3.66-4.13,5.4-5.99c4.36-4.64,9.28-7.97,16.06-7.89c3.8,0.04,6.96-2.1,9.96-4.23c4.34-3.09,8.51-6.44,12.95-9.38
	c8.05-5.32,12.23-12.69,13.45-22.24c1.66-12.99,8.46-23.71,16.54-33.56c3.88-4.73,6.71-4.76,10.9-0.39
	c19.83,20.72,31.22,44.9,29.58,74.22c-0.36,6.5-2.83,12.32-6.23,17.72c-3.3,5.25-4.91,10.8-4.75,17.02
	c0.28,11.32-4.78,21.34-8.38,31.65c-4.1,11.72-7.18,23.47-6.97,36.03c0.16,9.77-2.78,19.06-5.82,28.24
	c-5.91,17.83-13.21,35.23-16.83,53.77c-0.71,3.65-3.3,4.02-6.19,4.59c-7.78,1.52-8.46,2.78-5.66,10.38
	c2.3,6.24,4.68,12.45,7.15,18.62c1.31,3.27-0.01,4.72-3.13,5.11c-1.97,0.24-3.96,0.48-5.95,0.48c-2.5,0.01-4.58-0.04-6.49,2.46
	c-2.07,2.72-7.14,1.48-7.7-1.9c-1.31-7.92-5.68-10.31-13.37-9.98c-5.11,0.22-10.3-0.07-15.44,0.26c-2.53,0.16-4.99,0.58-6.15,3.42
	c-0.28,0.68-1.03,1.41-1.72,1.65c-13.44,4.6-25.71,12.8-40.58,13.04c-2.94,0.05-6.02-0.28-8.83,1.11c-14.33,0-28.67,0-43,0
	c-0.62-0.21-1.24-0.62-1.86-0.61c-17.78,0.41-34.55-4.17-51.14-9.98c-7.33-2.57-14.85-3.11-22.55-0.59
	c-5.54,1.82-13.43-2.75-16.57-9.36c-4-8.42-7.44-17.11-9.53-26.23c-1.94-8.46-0.87-10.24,7.18-13.54
	c8.93-3.66,17.91-7.2,26.53-11.61c4.1-2.09,5.06-4.99,3.57-8.97c-1.92-5.14-3.7-10.34-6.6-15.07c-2.4-3.92-5.34-6.9-9.71-8.87
	c-7.66-3.46-13.64-9.47-20.17-14.61c-2-1.57-1.97-3.82-1.41-5.96c1.63-6.2,1.09-12.15-1.33-18.07c-1.46-3.57-0.2-5.68,3.67-7.05
	c18.5-6.55,36.91-13.36,55.35-20.11c9.47-3.47,19.41-2.61,29.17-3.12c14.41-0.76,17.61-3.18,22.47-16.58
	c2.33-6.41,3.64-12.79,2.93-19.52c-1.14-10.83,2.52-20.29,7.96-29.32c4.63-7.69,9.78-15.09,13.12-23.52
	c2.31-5.83,2.54-11.53,0.09-17.44c-5.8-13.99-13.86-26.5-23.92-37.79c-4.4-4.93-9.78-6.95-16.31-7.15
	c-21.96-0.68-43.96-0.97-65.71-4.76c-4.59-0.8-8.54-2.75-12.36-5.07c-8.4-5.09-16.74-10.28-24.96-15.65
	c-3.13-2.04-4.02-1.36-3.77,2.09c0.04,0.5,0.01,1-0.05,1.5c-0.35,2.78-0.24,6.72-3.39,6.99c-2.92,0.25-2.2-3.74-2.95-5.92
	c-0.31-0.9-0.3-1.96-1.42-2.63c-4.29,4.01-7.49,8.31-5.41,14.77c0.7,2.19,0.77,4.59,1.01,6.9c0.1,0.95,0.17,2.04-0.97,2.59
	c-1.36-2.86-6.28-0.05-6.83-4.37c-0.36-2.88-1.07-5.71-1.79-9.39c-1.35,2.39-2.29,4.03-3.47,6.13c-2.03-2.63-1.28-5.07-0.4-7.19
	c4.13-9.93,9.92-18.8,17.54-26.44c3.65-3.65,7.61-2.38,11.6-0.86c11.03,4.22,21.84,8.99,33,12.89c18.46,6.45,37.05,7.28,56.03,2.73
	c8.25-1.98,16.67-3.15,26.24-3.31c-4.52-4.82-5.24-10.09-5.09-15.68c0.07-2.56-1.49-4.69-2.83-6.82c-3.6-5.73-5.63-11.91-6.19-18.74
	c-0.69-8.35,2.92-14.22,9.68-18.29c9.06-5.46,18.83-8.41,29.54-6.47c4.89,0.89,9.19,3.02,11.99,7.37c2.89,4.48,6.36,8.08,11.94,9.06
	c2.4,0.42,2.56,2.07,1.02,3.55c-2.32,2.23-1.27,3.99,0.25,5.99c1.41,1.85,2.64,3.84,3.88,5.82c2.9,4.62,2.05,7.19-3.2,9.05
	c-3.29,1.16-6.63,2.32-10.04,2.93c-4.38,0.79-5.23,3.47-3.83,6.87c2.34,5.7,6.73,9.86,11.89,13.04c2.38,1.47,5.03,1.05,6.24-1.91
	c7.79-18.93,19.58-36.38,20.24-57.94c0.31-10.01-2.75-19.05-5.74-28.16c-2.9-8.84-6.6-17.39-10.71-25.79
	c-3.17-6.49-8.23-9.13-14.95-9.94c-4.98-0.6-9.95-0.84-14.95-0.74c-1.8,0.03-3.63-0.29-5.42-0.62c-0.79-0.14-1.61-0.62-1.69-1.6
	c-0.1-1.24,0.75-1.79,1.79-1.97c2.29-0.4,4.6-0.67,6.89-1.08c1.84-0.33,5.13,0,4.92-1.92c-0.32-2.9-1.87-6.06-5.34-7.1
	c-0.75-0.23-1.65,0.08-2.48,0.07c-1.46-0.01-3.4,0.38-3.87-1.37c-0.39-1.48,1.27-2.19,2.52-2.62c2.79-0.95,1.57-2.06,0.39-3.52
	c-2.25-2.77-5.42-5.13-4.75-9.4C512.23,137.65,512.57,137.65,512.9,137.65z"/>
<linearGradient id="SVGID_2_" gradientUnits="userSpaceOnUse" x1="1014.7286" y1="152.9396" x2="662.9725" y2="504.6957">
	<stop  offset="0" style="stop-color:#F3E6D7"/>
	<stop  offset="1" style="stop-color:#CCA375"/>
</linearGradient>
<path class="st1" d="M844.21,609.79c-2,3.82-4.2,7.69-7.06,10.86c-4.09,4.54-6.44,9.74-7.4,15.53c-1.57,9.5-5.52,12.4-16.92,13.15
	c-2.94,0.19-6.62,0.67-7.71-3.66c-1.01-4,0.54-6.98,4.01-8.75c2.65-1.35,3.86-3.46,4.77-6.05c3.93-11.27,4.35-22.84,2.94-34.55
	c-0.15-1.28-0.48-3.4-1.18-3.61c-4.09-1.21-3.19-4.59-3.52-7.34c-3-24.47-5.93-48.94-8.9-73.42c-0.15-1.27,0.22-3.06-1.26-3.54
	c-3.03-0.98-6.37-1.17-9.36-0.46c-2.68,0.64-1.56,3.74-1.56,5.65c0,3.55-1.19,5.05-4.88,5.18c-9.53,0.33-18.96,0.25-28.29-2.14
	c-3.84-0.98-5.3-2.73-5.5-6.8c-2.37-50.11-4.38-100.22-2.04-150.39c0.91-19.63,1.98-39.3,6.42-58.54
	c2.58-11.18-0.73-21.41-5.87-30.59c-4.51-8.07-8.99-16.2-8.43-25.16c0.69-10.9-4.86-14.9-13.6-18.27
	c-13.98-5.41-28.12-10.32-42.34-15.03c-6.6-2.19-12.49-5.56-15.98-12c-1.66-3.07-1.4-5.55,1.72-7.72c3.31-2.3,6.72-4.34,10.45-5.82
	c14.72-5.84,30.26-7.74,45.84-9.44c1.36-0.15,2.67,0.02,3.84,0.79c6.59,4.35,13.34,9.19,15.72,16.77c1.95,6.2,5.98,6.77,10.7,7.3
	c2.95,0.33,6.02,0.35,8.96-0.03c7.76-0.98,11-5.23,10.38-13c-0.14-1.76-0.32-3.12-2.53-3.61c-4.17-0.94-6.05-4.14-7.54-7.92
	c-5.93-14.97-1.07-28.61,5.55-41.69c5.56-10.98,15.25-15.9,27.6-14.75c3.24,0.3,6.1,0.01,9.17-1.13c6.23-2.32,12.14-1.63,16.99,3.41
	c7.99,8.3,8.21,16.69,0.1,25.02c-3.01,3.08-3.93,6.18-4.46,10.33c-0.78,6.08-3.33,12.32-9.07,15.22c-6.63,3.35-6.94,8.69-6.73,14.59
	c0.35,10.06,9.76,17,17.63,15.68c8.53-1.43,17.26-1.74,25.75-3.34c20.54-3.88,40.68-8.14,54.25-26.99
	c10.55-14.67,22.63-28.22,35.65-40.9c5.32-5.18,11.28-9.6,18.07-10.79c8.06-1.42,16.61-0.27,24.78,1.68
	c1.52,0.36,3.83,0.51,3.47,2.72c-0.3,1.85-2.35,2.17-4.08,2.11c-3.5-0.13-6.99-0.36-10.48-0.54c-1.22-0.07-2.51,0.04-2.78,1.44
	c-0.25,1.32,1.13,1.38,1.96,1.81c2.52,1.28,5.12,2.42,7.53,3.89c2.18,1.32,4.42,3.1,2.85,6.03c-1.49,2.78-4.06,1.59-6.21,0.79
	c-2.49-0.93-4.83-2.29-7.64-1.89c-11.06,1.58-20.24,7.46-27,15.51c-10.68,12.73-20,26.63-29.54,40.29
	c-3.78,5.41-8.51,8.99-14.38,11.76c-16.73,7.9-33.95,14.58-51.18,21.24c-8.88,3.43-16.93,7.21-23.45,15.04
	c-8.61,10.34-10.06,30.93-1.16,41.28c7.77,9.03,17.21,15.54,28.31,19.76c20.22,7.68,41.33,11.25,62.63,14.45
	c12.13,1.82,23.09,1.73,32.41-7.35c0.47-0.46,1.1-0.74,1.66-1.11c13.05-8.61,26.2-17.1,36.24-29.42
	c4.66-5.71,10.53-10.08,16.54-14.22c2.89-1.99,6.17-3.3,9.76-3.56c4.53-0.33,9.02,0.3,11.62,4.27c2.39,3.66,0.23,7.48-1.64,10.8
	c-4.32,7.69-10.78,13.51-17.51,19c-2.52,2.06-5.15,3.67-3.06,7.61c0.91,1.72-0.85,3.06-1.71,4.42
	c-6.32,10.04-14.36,18.72-22.5,27.21c-14.35,14.95-30.33,24.81-53.01,23.56c-24.69-1.36-49.62,0.66-74.36,2.84
	c-12.67,1.11-12.71,1.38-13.66,14.33c-1.44,19.61,1.81,38.87,4.64,58.15c2.61,17.77,7.11,35.2,7.73,53.33
	c0.94,27.34,0.44,54.64-0.17,81.96c-0.13,5.87-0.04,11.48-7.24,14.11C847.76,592.65,849.46,599.78,844.21,609.79z M727.07,198.45
	c2.12,0.11,2.55-1.14,2.17-2.9c-0.59-2.78-1.61-5.37-5.13-4.79c-4.75,0.78-9.3,2.25-14.22,5.74
	C716.13,198.32,721.63,198.16,727.07,198.45z"/>
</svg>
